<?xml version="1.0" encoding="UTF-8"?>
<svg version="1.1" viewBox="0 0 1158.1 1158" xmlns="http://www.w3.org/2000/svg">
<path
      d="M1158.1 164.32V993.7c0 90.74-73.58 164.33-164.41 164.33h-829.3c-36.33 0-69.82-11.72-97.02-31.56-5.45-4.02-10.64-8.37-15.57-12.98-2.6-2.51-5.11-5.02-7.54-7.61C16.8 1076.49-.03 1037.06-.03 993.7V164.32C-.03 73.57 73.56-.02 164.39-.02h829.3c46.96 0 89.4 19.76 119.29 51.32 1.26 1.34 2.51 2.68 3.77 4.1 8.04 8.96 15.07 18.92 20.93 29.56 12.97 23.52 20.42 50.56 20.42 79.36z"
      fill="#006bcc"
    />
    <g fill="#fff">
      <path d="M505.06 249.4c2.18 25.12.69 54.02-4.47 86.69-5.29 31.09-11.4 57.39-18.33 78.9-6.92 21.51-14.96 39.45-24.1 53.83-3.29 5.08-7.06 9.2-11.31 12.37-4.26 3.17-8.5 4.93-12.73 5.3-5.03.44-9.7-1.29-14.03-5.18-4.89-4.1-8.66-10.7-11.31-19.8-2.66-9.09-4.13-20.02-4.44-32.78-.38-13.55 1.2-33 4.73-58.35 3.53-25.34 9.5-50.9 17.92-76.67-4.64 1.74-8.65 3.15-12.02 4.24-3.64 1.11-7.3 1.83-11 2.15-4.76.41-9.84.19-15.24-.68-4.87-.91-9.01-2.55-12.41-4.92-5.35-3.26-8.27-7.8-8.77-13.62-.28-3.17.24-6.41 1.55-9.72 1.48-4.39 5.11-10.23 10.87-17.52s14.01-15 24.76-23.12 23.72-15.11 38.94-20.96c7.24-2.49 14.3-4.04 21.17-4.63 5.55-.48 11.03-.29 16.43.57 5.69 1.1 9.74 3.29 12.15 6.54l.43.36 4.02 4.85c3.49 6.37 5.88 17.09 7.19 32.15zM772.13 329.74c.23 2.65-1.14 5.29-4.1 7.95-4.95 4.42-15.06 9.17-30.33 14.22-15.28 5.06-33.04 9.13-53.28 12.21-2.53 23.13-6.58 43.86-12.19 62.19-2.29 7.39-5.2 13.71-8.75 18.94-3.54 5.24-7 8.4-10.36 9.49l-1.59.14c-2.65.23-5.2-1.55-7.65-5.33-2.17-3.54-4.23-9.62-6.18-18.24s-3.44-18.88-4.47-30.78c-.83-9.52-1.3-19.6-1.42-30.24-26.49 1.77-47.99 1.1-64.5-2-10.3-2.03-16.74-5.6-19.31-10.71-.67-1.54-1.03-2.71-1.1-3.5-.41-4.76 2.7-9.49 9.36-14.2 6.65-4.7 16.21-8.93 28.67-12.67 12.44-4.01 29.05-7.45 49.85-10.32 2.26-29.23 6.75-52.66 13.48-70.29 4.46-9.98 9.16-15.71 14.09-17.2l1.95-.57c2.11-.18 4.58.67 7.41 2.55 7.71 5.99 12.63 21.28 14.77 45.87.89 10.31 1.36 21.86 1.41 34.64 18.57-.81 36.07-.19 52.5 1.84 7.54.94 14.22 2.7 20.03 5.26 5.82 2.56 9.52 5.37 11.12 8.42.29.49.5 1.27.59 2.33zM950.4 210.78c2.18 25.12.69 54.02-4.47 86.69-5.29 31.09-11.4 57.39-18.33 78.9-6.92 21.51-14.96 39.45-24.1 53.83-3.29 5.08-7.06 9.2-11.31 12.37-4.26 3.17-8.5 4.93-12.73 5.3-5.03.44-9.7-1.29-14.03-5.18-4.89-4.1-8.66-10.7-11.31-19.8-2.66-9.09-4.13-20.02-4.44-32.78-.38-13.55 1.2-33 4.73-58.35 3.53-25.34 9.5-50.9 17.92-76.67-4.64 1.74-8.65 3.15-12.02 4.24-3.64 1.11-7.3 1.83-11 2.15-4.76.41-9.84.19-15.24-.68-4.87-.91-9.01-2.55-12.41-4.92-5.35-3.26-8.27-7.8-8.77-13.62-.28-3.17.24-6.41 1.55-9.72 1.48-4.39 5.11-10.23 10.87-17.52s14.01-15 24.76-23.12 23.72-15.11 38.94-20.96c7.24-2.49 14.3-4.04 21.17-4.63a67.28 67.28 0 0 1 16.43.57c5.69 1.1 9.74 3.29 12.15 6.54l.43.36 4.02 4.85c3.49 6.37 5.88 17.08 7.19 32.15zM659.84 1015.5c-18.11 8.16-150.24-38.96-171.09-32.84-50.63 14.87-108.58 23.3-170.16 23.3-138.6 0-258.84-42.74-318.61-105.32V720.92c59.76-62.58 180.01-105.33 318.61-105.33 198.17 0 364.21 35.38 364.21 143.18 0 44.09-32.27 136.78-77.59 169.46-16.89 12.17 76.2 77.56 54.63 87.27z" />
    </g>
    <path
      d="M89.185 822.92c-.14-1.59.37-3.36 1.54-5.33 1.86-3.09 5.52-6.2 10.98-9.34 5.45-3.13 12.46-6.01 21.03-8.62 6.73-2.18 16.6-4.44 29.58-6.76s26.87-4.13 41.68-5.41c23.79-2.06 45.91-1.98 66.35.24 6.46.78 12.25 2.27 17.37 4.49s8.32 4.61 9.61 7.16c1.59 3.06.66 6.07-2.81 9.03-4.46 3.85-14.02 8.08-28.67 12.67-14.65 4.6-31.45 8.26-50.39 10.96-7.89 1.22-18.97 2.44-33.24 3.68-26.97 2.34-48.56 2.08-64.79-.77-11.64-1.92-17.71-5.92-18.24-12zm5.6 64.64c-.14-1.59.37-3.36 1.54-5.33 1.86-3.09 5.52-6.2 10.98-9.34 5.45-3.13 12.46-6.01 21.03-8.62 6.73-2.18 16.6-4.44 29.58-6.76s26.87-4.13 41.68-5.41c23.79-2.06 45.91-1.98 66.35.24 6.46.78 12.25 2.27 17.37 4.49s8.45 4.6 10.01 7.12c1.09 3.37.02 6.39-3.21 9.07-4.46 3.85-14.02 8.08-28.67 12.67-14.65 4.6-31.45 8.26-50.39 10.96-7.89 1.22-18.97 2.44-33.24 3.68-26.97 2.34-48.56 2.08-64.79-.77-11.64-1.92-17.71-5.92-18.24-12zM546.57 867.96c.14 1.59.1 2.79-.09 3.6-.8 6.2-6.08 13.58-15.86 22.15-9.78 8.58-22.49 16.34-38.14 23.29-17.71 7.67-33.35 13.95-46.91 18.85-13.56 4.91-26.55 7.9-38.98 8.97-15.34 1.33-27.28-1.23-35.83-7.68-5.17-4.35-8.1-10.48-8.79-18.42-1.26-14.54 2.7-32.6 11.88-54.17s18.31-39.94 27.38-55.12c3.72-6.18 10.85-16.12 21.39-29.82 5-6.83 9.69-13.36 14.08-19.6 4.38-6.24 7.09-11.13 8.12-14.69 1.04-3.29 1.47-6.12 1.26-8.5-.23-2.64-1.12-5.23-2.67-7.76-2.15-3.27-4.97-5.03-8.45-5.26-5.96-1.08-12.29 2.66-19 11.24-4.54 5.99-9.12 10.78-13.74 14.38s-8.78 5.56-12.48 5.88l-2.41-.19c-11.58-1.39-17.88-8.04-18.91-19.94-.62-7.14 1.63-15.79 6.74-25.96 5.11-10.16 12.37-19.38 21.77-27.66 9.4-8.27 19.86-13.57 31.38-15.91 4.16-1.16 8.22-1.91 12.19-2.26 3.43-.3 8.37-.19 14.81.31 18.01 1.9 33.06 11.12 45.15 27.65 4.89 7.3 7.73 15.45 8.51 24.43.94 10.84-.26 21.67-3.58 32.47-3.33 10.81-7.02 20.39-11.09 28.73-2.69 5.83-6.41 12.14-11.14 18.95l-5.23 8.84c-1.19 1.7-4.71 7.14-10.57 16.3-5.87 9.17-10.12 16.93-12.76 23.28-2.04 4.17-3.29 8.15-3.76 11.91 13.49-4.1 27.51-6.78 42.06-8.04 6.35-.55 11.12-.83 14.31-.84 6.65-.04 13.28 1.05 19.86 3.27 6.59 2.23 11.61 4.92 15.09 8.08 2.63 2.47 4.09 5.54 4.41 9.24z"
      fill="#2968b0"
    />
  </svg>