<?xml version="1.0" encoding="UTF-8"?>
<svg version="1.1" viewBox="0 0 1158.1 1158" xml:space="preserve" xmlns="http://www.w3.org/2000/svg">
    
    <path d="m685.31 591.79c5.4579-75.004-36.835-64.458-60.827-29.899-14.395 20.737-49.527 135.79-57.116 164.46-13.061 49.375-32.958 179.58-38.858 204.2-27.014 112.65-124.86 139.15-170.99 129.76-46.12-9.3937-79.948-33.255-140.89-17.41-60.943 15.837-136.54 59.761-99.735 66.886 68.459 13.25 104.56-6.4146 172.16 20.186 166.51 83.427 342.13-52.448 367.81-228.35 18.236-82.818 26.028-117.15 47.244-122.21 24.231-5.7913 113.7 19.309 38.176 77.824-73.953 57.297-74.026 152.3 5.6753 157.58 79.694 5.2766 221.38-22.346 160.78-41.039-80.209-24.753-129.47-15.591-74.729-51.651 79.136-55.92 47.708-196.35-53.658-210.42-40.51-8.9298-99.01 7.9803-58.392-24.818 23.506-18.983 189.38-45.526 150.86-68.097-84.152-38.292-190.69 16.548-187.52-26.992z" fill="#eb803f" stroke-width=".72482"/><path d="m883.81 311.51c-40.829-31.551 9.9445-64.697 35.581-78.121 30.109-15.026 133.65-58.507 131.44-100.06-0.5509-10.053-8.8936-18.345-18.954-19.396-58.123-5.9653-219.73 101.5-230.23 84.42-17.512-48.237 37.459-186.42-10.053-195.31-69.677-11.264-181.26 366.21-149.9 479.94 6.1827 22.433 33.117 31.856 51.767 17.932 38.604-28.833 74.265-97.024 108.91-82.941 47.679 22.542 163.82 42.931 232.72 10.387 51.6-24.361-107.58-82.651-151.28-116.85zm-39.285 65.799c-1.2177-3.7546-1.051-7.8426 0-11.655 9.9445-35.081-31.827-30.609-55.253-28.014-26.079 2.9283 12.431-42.264 41.663-35.473 68.343 15.859 23.093 104.21 13.59 75.142z" fill="#eb803f" stroke-width=".72482"/>
</svg>
