<?xml version="1.0" encoding="UTF-8"?>
<!-- Created with Inkscape (http://www.inkscape.org/) -->
<svg version="1.1" viewBox="0 0 1529.3 406.67" xml:space="preserve" xmlns="http://www.w3.org/2000/svg"><defs><clipPath id="clipPath16"><path d="m0 0h1147v305h-1147z"/></clipPath></defs><g transform="matrix(1.3333 0 0 -1.3333 0 406.67)"><g clip-path="url(#clipPath16)"><g transform="translate(279.37 168.52)"><path d="m0 0c-7.432 0-12.86 1.946-16.28 5.839-3.658 4.129-5.486 10.676-5.486 19.643 0 2.947 0.293 6.782 0.885 11.502 2.593 17.931 6.458 33.119 11.59 45.568 5.132 12.445 10.115 22.147 14.954 29.109 2.593 3.775 5.425 6.841 8.494 9.203 3.066 2.358 5.779 3.538 8.14 3.538 0.824 0 1.593-0.176 2.3-0.531 1.77-0.945 2.655-3.892 2.655-8.847 0-4.366-0.827-11.032-2.478-19.997l-0.354-1.946c-1.18-6.255-3.481-16.754-6.901-31.499l-4.247-19.466c-0.238-0.708-0.354-1.239-0.354-1.593 0-0.592 0.293-1.299 0.885-2.123 0.708-0.946 2.123-1.416 4.247-1.416l3.008 0.177c1.178 0 2.063 0.058 2.654 0.178h3.894c4.717 0.234 8.375 0.353 10.971 0.353 7.903 0 14.215-0.768 18.935-2.301 3.185-1.18 4.778-3.303 4.778-6.37 0-2.951-1.681-6.016-5.043-9.202-3.363-3.185-7.994-6.077-13.892-8.671-7.197-3.304-13.745-5.9-19.643-7.786-5.9-1.886-12.682-3.009-20.35-3.362z" fill="#006bcc"/></g><g transform="translate(410.52 258.5)"><path d="m0 0c-2.951 0-6.667-0.946-11.149-2.832-4.485-1.888-8.79-4.454-12.918-7.697-4.131-3.246-7.255-6.755-9.379-10.529-1.534-2.951-2.3-5.901-2.3-8.848 0-2.124 0.412-4.013 1.238-5.663 1.886-3.185 5.132-4.778 9.733-4.778 4.364 0 9.584 1.297 15.661 3.893 6.075 2.594 10.822 6.075 14.245 10.441 2.124 2.712 3.775 5.455 4.956 8.228 1.177 2.771 1.769 5.337 1.769 7.698 0 1.651-0.296 3.185-0.885 4.601-1.888 3.54-5.546 5.367-10.971 5.486m-14.865-72.022c-5.546 0-10.678 0.588-15.396 1.769-7.55 1.532-14.068 4.305-19.554 8.317-5.485 4.009-9.409 8.787-11.768 14.334-1.653 3.893-2.477 7.962-2.477 12.21 0 8.848 3.302 18.343 9.91 28.49 4.128 6.487 9.26 12.326 15.395 17.52 6.133 5.19 11.738 8.964 16.812 11.325 5.071 2.358 7.844 3.655 8.317 3.893 9.791 4.128 19.758 6.194 29.906 6.194 11.325 0 20.704-2.831 28.137-8.494 4.482-3.305 7.609-7.463 9.379-12.476 1.769-5.016 2.654-10.175 2.654-15.484 0-5.193-0.68-10.53-2.035-16.015-1.358-5.486-3.335-10.53-5.928-15.13-3.186-6.136-7.906-12.005-14.157-17.608-6.255-5.604-13.626-10.147-22.12-13.626-8.494-3.481-17.519-5.219-27.075-5.219" fill="#006bcc"/></g><g transform="translate(477.96 177.71)"><path d="m0 0c-1.062 0-2.066 0.412-3.008 1.239-0.946 0.824-1.654 2.004-2.124 3.539-0.708 2.358-1.062 6.429-1.062 12.21 0 15.808 2.594 33.562 7.786 53.265 7.668 29.611 16.458 47.602 26.367 53.973 1.297 0.708 2.478 1.062 3.54 1.062 1.061 0 2.004-0.415 2.831-1.239 1.178-1.416 1.77-3.423 1.77-6.017 0-6.608-0.885-16.988-2.655-31.145-0.354-2.596-0.531-4.543-0.531-5.839 0-1.77 0.354-3.009 1.062-3.716 0.47-0.709 1.239-1.062 2.3-1.062 0.59 0 1.947 0.469 4.071 1.415 7.548 3.54 17.4 7.372 29.552 11.503 6.606 2.239 11.826 3.832 15.661 4.777 3.832 0.944 7.167 1.416 9.998 1.416h0.177c1.297 0 2.536-0.442 3.716-1.327 1.178-0.885 1.77-2.035 1.77-3.451 0-2.123-1.416-4.542-4.247-7.255-4.72-4.72-9.468-8.467-14.245-11.237-4.778-2.773-9.999-5.458-15.661-8.052l-5.486-2.301c-4.131-1.888-6.932-3.273-8.406-4.158-1.476-0.885-2.212-1.977-2.212-3.273 0-1.654 1.062-3.247 3.185-4.778 2.124-1.534 6.252-4.012 12.388-7.433l3.893-2.123c4.836-2.831 7.844-4.662 9.025-5.486l3.539-2.123c4.128-2.715 7.167-4.839 9.114-6.37 1.946-1.536 3.804-3.363 5.574-5.487 1.178-1.535 1.769-3.184 1.769-4.955 0-0.946-0.119-1.652-0.354-2.123-1.299-2.361-4.07-3.54-8.317-3.54-0.708 0-2.123 0.117-4.247 0.355-4.484 0.707-8.436 1.651-11.856 2.831-3.423 1.178-9.144 3.478-17.165 6.901-9.91 4.247-18.996 8.671-27.252 13.273l-3.008 1.592c-0.827 0.354-1.593 0.53-2.301 0.53-1.653 0-3.008-0.945-4.07-2.831-0.591-1.18-1.946-4.069-4.07-8.671-2.477-5.309-4.631-9.704-6.459-13.183-1.83-3.481-3.511-6.047-5.043-7.697-1.654-2.008-3.423-3.009-5.309-3.009" fill="#006bcc"/></g><g transform="translate(640.93 243.46)"><path d="m0 0c-2.242-0.354-4.07-0.769-5.486-1.238-5.309-1.77-9.644-4.574-13.006-8.406-3.362-3.835-5.458-8.348-6.282-13.537-0.592-3.305 0.058-6.078 1.946-8.318 2.005-2.008 4.247-3.069 6.725-3.185h0.884c2.478 0 4.955 0.707 7.433 2.123 7.078 4.602 12.326 10.203 15.749 16.811 0.824 1.652 1.355 2.832 1.593 3.54 0.589 1.769 1.001 3.42 1.239 4.955 0.116 0.588 0.176 1.238 0.176 1.946v0.177c-0.237 2.124-1.476 3.656-3.716 4.601-0.945 0.47-2.361 0.707-4.247 0.707h-2.477c-0.119-0.118-0.296-0.176-0.531-0.176m32.56-64.944h-0.707c-2.007 0.235-3.716 0.885-5.132 1.947-4.131 2.831-7.316 6.782-9.556 11.856l-0.885 2.3-1.946-1.416c-12.506-8.847-24.363-13.272-35.569-13.272-1.181 0-2.066 0.059-2.654 0.177-4.602 0.235-8.937 1.355-13.007 3.363-4.07 2.004-7.582 4.717-10.529 8.14-2.715 3.185-4.839 6.782-6.371 10.794-1.534 4.01-2.3 8.141-2.3 12.387 0 1.652 0.058 2.89 0.177 3.717 2.477 21.705 15.63 38.87 39.462 51.495 3.066 1.651 7.017 3.096 11.856 4.336 4.836 1.238 9.791 1.857 14.865 1.857 1.651 0 2.889-0.061 3.716-0.176 5.663-0.354 10.645-1.593 14.953-3.717 4.305-2.122 7.756-5.073 10.352-8.847 3.656-5.193 5.487-10.972 5.487-17.343 0-3.069-0.327-5.927-0.974-8.582-0.65-2.655-1.624-6.105-2.921-10.352-1.769-4.839-2.83-8.908-3.184-12.211-0.119-0.945-0.178-2.418-0.178-4.423 0-4.131 0.766-9.379 2.301-15.75 1.061-3.423 1.593-5.839 1.593-7.255 0-2.124-0.858-4.159-2.566-6.106-1.712-1.946-3.805-2.919-6.283-2.919" fill="#006bcc"/></g><g transform="translate(712.8 171.09)"><path d="m0 0c-2.243 0-4.247 0.943-6.017 2.832-3.893 4.363-5.84 12.798-5.84 25.304 0 4.718 0.355 10.441 1.062 17.166 2.005 18.05 4.04 31.969 6.105 41.762 2.063 9.791 3.921 16.457 5.574 19.997 1.651 3.539 3.421 6.371 5.309 8.493l0.885 1.063c4.128 4.836 9.083 7.255 14.865 7.255 5.425 0 10.086-2.243 13.979-6.724 2.713-3.069 6.164-7.582 10.353-13.538 4.186-5.959 8.051-11.652 11.591-17.076l3.362-4.956c2.358-3.423 3.774-5.369 4.247-5.84 1.178-1.653 2.478-2.477 3.893-2.477 1.297 0 2.359 0.62 3.185 1.858 0.824 1.239 2.005 3.629 3.54 7.167 2.358 5.664 5.013 11.442 7.963 17.342 2.24 4.129 4.747 7.402 7.52 9.822 2.771 2.416 5.514 3.627 8.23 3.627 4.246 0 7.077-2.892 8.493-8.671 0.354-1.18 0.531-2.654 0.531-4.423 0-5.901-1.477-14.395-4.424-25.482-2.95-11.091-6.282-21.944-9.998-32.561-3.716-10.618-6.343-17.342-7.875-20.174l-1.062-2.301c-2.007-3.892-3.835-6.961-5.485-9.201-1.654-2.243-3.658-3.362-6.017-3.362-2.242 0-4.839 1.297-7.787 3.893-7.55 6.84-16.811 19.169-27.782 36.984-2.596 3.774-3.716 5.425-3.362 4.955-1.299 2.005-2.596 3.009-3.894 3.009-1.18 0-2.065-0.504-2.654-1.505-0.592-1.003-1.357-3.097-2.3-6.282-0.354-0.945-0.797-2.212-1.328-3.804-0.53-1.593-1.269-3.689-2.211-6.282-0.827-2.243-1.3-3.54-1.416-3.894l-1.769-4.6c-2.832-7.906-5.044-13.568-6.637-16.989-1.593-3.423-3.804-6.725-6.636-9.909-0.591-0.592-1.445-1.15-2.565-1.681-1.123-0.532-2.331-0.797-3.628-0.797" fill="#006bcc"/></g><g transform="translate(886.92 250.69)"><path d="m0 0c-2.95 0-6.667-0.946-11.149-2.831-4.485-1.889-8.79-4.455-12.918-7.698-4.13-3.246-7.255-6.755-9.379-10.529-1.534-2.95-2.3-5.901-2.3-8.848 0-2.124 0.412-4.013 1.239-5.663 1.885-3.185 5.131-4.778 9.733-4.778 4.363 0 9.583 1.297 15.661 3.893 6.074 2.594 10.821 6.076 14.244 10.441 2.124 2.712 3.775 5.455 4.956 8.228 1.177 2.771 1.769 5.337 1.769 7.698 0 1.651-0.296 3.185-0.884 4.601-1.889 3.54-5.547 5.367-10.972 5.486m-14.865-72.022c-5.546 0-10.678 0.588-15.395 1.769-7.552 1.532-14.069 4.305-19.555 8.317-5.485 4.009-9.409 8.787-11.767 14.334-1.653 3.893-2.478 7.963-2.478 12.21 0 8.848 3.302 18.343 9.91 28.49 4.128 6.487 9.26 12.326 15.395 17.52 6.133 5.19 11.738 8.964 16.811 11.325 5.072 2.358 7.845 3.656 8.318 3.894 9.791 4.127 19.759 6.193 29.906 6.193 11.326 0 20.704-2.831 28.137-8.494 4.482-3.305 7.609-7.463 9.379-12.476 1.769-5.016 2.654-10.175 2.654-15.483 0-5.194-0.68-10.531-2.035-16.016-1.358-5.486-3.335-10.529-5.928-15.13-3.185-6.136-7.906-12.005-14.157-17.608-6.255-5.604-13.626-10.147-22.12-13.626-8.494-3.481-17.519-5.219-27.075-5.219" fill="#006bcc"/></g><g transform="translate(987.06 174.29)"><path d="m0 0c-5.074 0-9.644 1.562-13.714 4.69-4.07 3.124-6.52 7.578-7.344 13.36-0.827 5.898-1.712 11.383-2.655 16.457-2.477 15.573-4.512 29.226-6.105 40.966-1.592 11.738-2.389 21.441-2.389 29.11 0 5.071 0.412 8.671 1.239 10.795 2.24 5.663 5.663 8.494 10.264 8.494 3.066 0 6.044-1.123 8.936-3.362 2.889-2.243 5.101-5.074 6.636-8.494l0.708-1.77c2.005-4.601 3.774-10.087 5.309-16.457 1.531-6.37 3.597-18.227 6.194-35.569l0.707-4.601 3.186 3.362c2.947 3.186 8.14 8.67 15.572 16.457 7.433 7.787 14.096 14.923 19.996 21.412 1.886 2.24 4.159 4.01 6.813 5.309 2.655 1.297 5.22 1.946 7.699 1.946 2.358 0 4.127-0.707 5.308-2.123 0.708-0.827 1.062-2.007 1.062-3.539 0-0.708-0.238-2.124-0.708-4.246-0.827-2.598-4.72-10.237-11.68-22.917-6.962-12.683-14.306-25.278-22.031-37.781-7.728-12.506-13.479-20.765-17.253-24.775-4.131-4.485-9.379-6.724-15.75-6.724" fill="#006bcc"/></g><g transform="translate(1082.8 158.18)"><path d="m0 0c-5.9 0-10.56 0.738-13.98 2.212-3.423 1.477-5.958 3.097-7.609 4.867-1.3 1.653-1.947 3.008-1.947 4.069l0.177 0.709c0.236 1.653 0.766 2.714 1.593 3.184 0.824 0.473 2.536 0.827 5.132 1.062 0.589 0.12 2.328 0.443 5.22 0.974 2.889 0.53 5.928 1.623 9.113 3.274 6.841 3.539 12.211 7.371 16.104 11.501 3.893 4.129 7.078 8.552 9.555 13.273 0.943 1.885 1.416 3.301 1.416 4.247 0 0.707-0.119 1.239-0.353 1.592-0.355 0.824-1.181 1.24-2.478 1.24-0.708 0-1.888-0.238-3.539-0.709-1.535-0.472-3.07-0.768-4.601-0.884-2.123-0.592-4.308-0.885-6.548-0.885-4.719 0-9.909 1.474-15.572 4.424-3.54 2.123-6.933 5.159-10.175 9.113-3.246 3.952-4.867 9.114-4.867 15.484 0 3.42 0.589 6.96 1.77 10.617 2.712 8.257 5.07 14.539 7.078 18.847 2.005 4.305 4.541 8.345 7.609 12.122l1.239 1.592c3.774 4.836 6.902 8.464 9.379 10.883 2.478 2.417 4.717 3.686 6.724 3.805l1.062 0.177c2.239 0 3.951-0.592 5.132-1.77 1.062-1.415 1.593-3.069 1.593-4.955v-0.885c-0.238-2.714-1.534-7.404-3.893-14.067-2.362-6.667-5.074-13.776-8.14-21.324-1.3-3.304-1.947-6.255-1.947-8.848 0-2.477 0.589-4.485 1.77-6.017 0.707-1.181 1.738-2.123 3.096-2.831 1.355-0.708 2.859-1.063 4.513-1.063l1.062 0.178c3.774 0.234 7.105 1.593 9.998 4.07 2.889 2.478 6.163 5.898 9.821 10.263l1.062 1.416 0.53 0.708c2.832 3.302 5.514 6.044 8.052 8.229 2.536 2.181 5.279 3.274 8.229 3.274 1.532 0 3.243-0.65 5.132-1.947 1.651-1.299 2.859-2.742 3.628-4.335 0.765-1.593 1.15-3.866 1.15-6.813 0-6.609-2.419-18.936-7.256-36.985-5.781-20.881-13.39-34.889-22.827-42.028-9.44-7.137-19.82-10.823-31.146-11.06z" fill="#006bcc"/></g><g transform="translate(576.13 25.73)"><path d="m0 0c-5.9 0-10.56 0.738-13.98 2.212-3.423 1.477-5.958 3.097-7.609 4.867-1.3 1.653-1.947 3.008-1.947 4.069l0.177 0.709c0.236 1.653 0.766 2.714 1.593 3.184 0.824 0.473 2.536 0.827 5.132 1.062 0.589 0.12 2.328 0.443 5.22 0.974 2.889 0.53 5.928 1.623 9.113 3.274 6.841 3.539 12.211 7.371 16.104 11.501 3.893 4.129 7.078 8.552 9.555 13.273 0.943 1.885 1.416 3.301 1.416 4.247 0 0.707-0.119 1.239-0.353 1.592-0.355 0.824-1.181 1.24-2.478 1.24-0.708 0-1.888-0.238-3.539-0.709-1.535-0.472-3.07-0.768-4.601-0.884-2.123-0.592-4.308-0.885-6.548-0.885-4.719 0-9.909 1.474-15.572 4.424-3.54 2.123-6.933 5.159-10.175 9.113-3.246 3.952-4.867 9.114-4.867 15.484 0 3.42 0.589 6.96 1.77 10.617 2.712 8.257 5.07 14.539 7.078 18.847 2.005 4.305 4.541 8.345 7.609 12.122l1.239 1.592c3.774 4.836 6.902 8.464 9.379 10.883 2.478 2.417 4.717 3.686 6.724 3.805l1.062 0.177c2.239 0 3.951-0.592 5.132-1.77 1.062-1.415 1.593-3.069 1.593-4.955v-0.885c-0.238-2.714-1.534-7.404-3.893-14.067-2.362-6.667-5.074-13.776-8.14-21.324-1.3-3.304-1.947-6.255-1.947-8.848 0-2.477 0.589-4.485 1.77-6.017 0.707-1.181 1.738-2.123 3.096-2.831 1.355-0.708 2.859-1.063 4.513-1.063l1.062 0.178c3.774 0.234 7.105 1.593 9.998 4.07 2.889 2.478 6.163 5.898 9.821 10.263l1.062 1.416 0.53 0.708c2.832 3.302 5.514 6.044 8.052 8.229 2.536 2.181 5.279 3.274 8.229 3.274 1.532 0 3.243-0.65 5.132-1.947 1.651-1.299 2.859-2.742 3.628-4.335 0.765-1.593 1.15-3.866 1.15-6.813 0-6.609-2.419-18.936-7.256-36.985-5.781-20.881-13.39-34.889-22.827-42.028-9.44-7.137-19.82-10.823-31.146-11.06z" fill="#006bcc"/></g><g transform="translate(152.63 148.73)"><path d="m0 0c1.421 19.543-9.597 16.796-15.848 7.791-3.751-5.403-12.905-35.38-14.882-42.852-3.403-12.865-8.587-46.793-10.125-53.206-7.04-29.351-32.536-36.257-44.552-33.808-12.016 2.448-20.831 8.664-36.711 4.537s-35.577-15.571-25.987-17.428c17.838-3.452 27.244 1.672 44.858-5.259 43.384-21.737 89.147 13.666 95.837 59.499 4.753 21.579 6.783 30.524 12.31 31.844 6.314 1.508 29.627-5.031 9.947-20.278-19.27-14.929-19.288-39.684 1.478-41.058s57.683 5.822 41.893 10.694c-20.899 6.449-33.736 4.063-19.471 13.459 20.62 14.571 12.432 51.159-13.982 54.827-10.555 2.327-25.797-2.079-15.215 6.467 6.125 4.946 49.346 11.863 39.31 17.744-21.927 9.973-49.685-4.317-48.86 7.027" fill="#eb803f"/></g><g transform="translate(194.12 204.62)"><path d="m0 0c-0.317 0.979-0.274 2.044 0 3.037 2.591 9.142-8.292 7.976-14.396 7.3-6.795-0.764 3.239 11.013 10.854 9.242 17.809-4.132 6.018-27.151 3.542-19.579m10.236 17.146c-10.639 8.22 2.591 16.858 9.271 20.356 7.846 3.916 34.824 15.245 34.248 26.071-0.144 2.62-2.317 4.78-4.938 5.053-15.144 1.555-57.253-26.445-59.988-21.997-4.564 12.568 9.76 48.573-2.62 50.891-18.156 2.935-47.229-95.419-39.059-125.06 1.612-5.846 8.63-8.301 13.488-4.672 10.059 7.514 19.351 25.282 28.378 21.611 12.424-5.873 42.684-11.185 60.636-2.706 13.446 6.349-28.029 21.537-39.416 30.448" fill="#eb803f"/></g><g transform="translate(897.42 109.26)"><path d="m0 0c0 5.461-14.825 1.17-14.825 12.016 0 4.681 3.706 8.544 10.105 8.544 6.476 0 10.142-4.253 10.299-9.246h-5.579c-0.117 2.419-1.834 4.174-4.798 4.174-2.692 0-4.41-1.326-4.41-3.121 0-5.54 14.982-1.171 14.982-12.172 0-4.954-4.37-8.465-10.963-8.465-7.686 0-10.533 4.759-10.69 9.323h5.619c0.155-2.263 1.795-4.252 5.384-4.252 3.042 0 4.876 1.17 4.876 3.199" fill="#006bcc"/></g><g transform="translate(932.12 129.24)"><path d="m0 0-10.495-27.699h-5.851l-10.494 27.699h6.397l7.061-20.13h0.078l7.062 20.13z" fill="#006bcc"/></g><g transform="translate(941.16 134.04)"><path d="m0 0v4.369l6.281-3.082 6.281 3.082v-4.369l-6.281-3.238zm6.32-4.213c6.906 0 12.367-4.096 13.421-10.846h-6.086c-0.819 3.473-3.629 5.423-7.335 5.423-5.072 0-7.919-3.512-7.919-8.973 0-5.462 2.847-8.972 7.919-8.972 3.706 0 6.516 1.95 7.335 5.422h6.086c-1.054-6.749-6.515-10.845-13.421-10.845-7.958 0-13.927 5.734-13.927 14.395s5.969 14.396 13.927 14.396" fill="#006bcc"/></g><g transform="translate(995.66 101.54)"><path d="m0 0h-17.985v27.699h5.696v-22.471h12.289z" fill="#006bcc"/></g><g transform="translate(999.18 110.28)"><path d="m0 0v11.704h5.541v-11.782c0-2.848 1.287-4.174 3.744-4.174 2.458 0 3.745 1.326 3.745 4.174v11.782h5.54v-11.704c0-6.632-3.316-9.208-9.285-9.208s-9.285 2.576-9.285 9.208" fill="#006bcc"/></g><g transform="translate(1025 126.62)"><path d="m0 0v4.369l6.281-3.082 6.281 3.082v-4.369l-6.281-3.238zm4.486-20.287h10.416v-4.798h-17.36v4.564l10.221 11.081h-10.065v4.798h17.049v-4.566z" fill="#006bcc"/></g><g transform="translate(1059 131.19)"><path d="m0 0-3.121-6.671h-4.993l2.379 6.671zm-4.837-13.615c-3.082 0-5.034-2.497-5.034-5.813s1.952-5.813 5.034-5.813c3.081 0 5.032 2.497 5.032 5.813s-1.951 5.813-5.032 5.813m10.416 4.408v-20.442h-5.111v2.496c-1.287-1.872-3.589-2.964-6.476-2.964-5.93 0-9.402 4.759-9.402 10.689 0 5.929 3.472 10.69 9.402 10.69 2.887 0 5.189-1.093 6.476-2.965v2.496z" fill="#006bcc"/></g><g transform="translate(1075.5 119.48)"><path d="m0 0c0.936 1.756 3.043 2.965 6.086 2.965 4.915 0 7.529-3.277 7.529-8.154v-12.757h-5.54v12.132c0 2.38-1.014 4.019-3.472 4.019-2.691 0-4.174-1.716-4.174-4.447v-11.704h-5.539v20.443h5.11z" fill="#006bcc"/></g><g transform="translate(1114.7 121.98)"><path d="m0 0-7.647-8.701 8.193-11.742h-6.554l-5.306 8.076-3.082-3.512v-4.564h-5.539v29.259h5.539v-18.102l7.452 9.286z" fill="#006bcc"/></g><g transform="translate(1124.8 101.89)"><path d="m0 0-8.075 20.092h5.89l4.916-13.655 4.954 13.655h5.775l-11.432-28.557h-5.461z" fill="#006bcc"/></g><g transform="translate(265.74 42.718)"><path d="m0 0c-2.356 0-5.417 0.47-9.185 1.413-9.068 2.589-15.926 8.152-20.576 16.691-4.653 8.536-7.802 17.221-9.449 26.052-1.65 6.593-2.473 13.6-2.473 21.018 0 7.181 0.883 14.012 2.649 20.488 1.883 6.946 4.386 11.597 7.507 13.953 3.118 2.355 5.856 3.533 8.213 3.533h0.882c3.061-0.237 5.211-1.739 6.448-4.503 1.236-2.769 2.031-6.508 2.384-11.216l0.176-3.179c0.47-7.065 1.502-13.247 3.092-18.546 1.589-5.299 4.266-8.891 8.036-10.774 2.707-0.826 4.945-1.237 6.711-1.237 3.296 0 6.417 1.061 9.361 3.18 2.943 2.119 7.181 5.828 12.717 11.127 2.001 2.354 3.472 3.886 4.416 4.593 3.767 3.413 8.24 8.358 13.423 14.836 3.296 4.12 5.976 7.211 8.037 9.272 2.059 2.059 3.855 3.091 5.387 3.091h0.529c1.413-0.353 2.412-1.297 3.003-2.825 1.413-2.592 2.119-6.067 2.119-10.421 0-8.362-2.533-19.429-7.594-33.205-4.476-12.364-9.891-22.55-16.25-30.556-6.358-8.009-12.954-13.807-19.782-17.397-6.83-3.594-13.423-5.388-19.781-5.388" fill="#006bcc"/></g><g transform="translate(359.33 35.287)"><path d="m0 0c-1.766 0-3.386 0.765-4.856 2.296-1.475 1.529-2.68 3.71-3.622 6.535-0.825 2.12-1.236 5.944-1.236 11.481 0 7.065 0.618 15.954 1.855 26.67 1.236 10.713 2.737 21.429 4.504 32.145l0.353 2.12-1.943 0.353c-0.591 0-1.943 0.646-4.063 1.943-1.297 0.706-2.384 2.001-3.267 3.886-0.883 1.882-1.325 4.002-1.325 6.358 0 3.179 1.206 6.563 3.621 10.156 2.412 3.59 7.153 6.386 14.218 8.389 14.836 4.002 26.698 6.889 35.59 8.655 8.889 1.766 16.219 2.65 21.989 2.65 1.53 0 3.709-0.119 6.536-0.354 3.532-0.353 6.446-1.412 8.742-3.179 2.297-1.766 3.444-3.886 3.444-6.359s-1.09-5.006-3.268-7.595c-2.179-2.59-5.681-4.887-10.508-6.887-19.782-8.363-29.734-12.602-29.85-12.717l-0.883-0.354-3.709-11.48 3.179 0.353c3.18 0.469 6.298 0.706 9.361 0.706 1.413 0 3.414-0.118 6.005-0.353 2.943-0.237 5.299-1.06 7.066-2.473 1.766-1.413 2.649-3.121 2.649-5.122 0-1.885-0.883-3.857-2.649-5.917-1.767-2.061-4.535-3.916-8.302-5.563l-24.374-10.244-2.296-0.354-0.529-1.236c-6.359-19.781-10.068-30.851-11.128-33.205-1.413-3.416-3.152-6.154-5.21-8.213-2.062-2.062-4.093-3.091-6.094-3.091" fill="#006bcc"/></g><g transform="translate(491.39 135.76)"><path d="m0 0c-2.944 0-5.652-0.237-8.125-0.706l-1.59-0.354-5.298-28.965 3.886 1.589c6.711 2.707 11.568 5.034 14.571 6.977 3.002 1.942 5.621 4.504 7.86 7.683 1.175 1.647 1.766 3.414 1.766 5.298 0 1.294-0.237 2.355-0.707 3.179-1.765 3.533-5.888 5.299-12.363 5.299m34.795-102.26c-1.298 0-2.649 0.177-4.063 0.531-6.477 1.765-13.688 4.504-21.636 8.213-7.949 3.709-18.752 10.39-32.41 20.046l-2.296 1.59-1.06-2.649c-3.417-8.244-6.831-15.191-10.244-20.842-1.179-2.004-2.473-3.594-3.886-4.769-1.413-1.178-2.826-1.766-4.239-1.766-1.297 0-2.357 0.469-3.179 1.413-2.004 1.647-3.003 5.356-3.003 11.127 0 11.773 1.325 25.492 3.974 41.153 2.649 15.659 5.799 29.85 9.449 42.567 2.001 7.298 4.032 12.716 6.094 16.249 2.058 3.532 4.209 5.974 6.447 7.33 2.236 1.352 5.591 2.738 10.068 4.151l3.355 1.059c6.121 0.469 10.36 0.707 12.717 0.707 18.015 0 30.555-3.828 37.621-11.481 4.354-4.83 6.535-10.774 6.535-17.839 0-1.413-0.061-2.415-0.177-3.003-0.237-2.944-1.325-6.242-3.267-9.89-1.944-3.652-4.504-7.303-7.684-10.951-7.771-9.303-17.957-16.956-30.556-22.961l-3.001-1.59 2.648-2.119c0.47-0.472 5.887-5.24 16.25-14.307 10.359-9.068 17.19-16.368 20.488-21.901 1.176-1.885 1.766-3.651 1.766-5.298 0-0.707-0.176-1.356-0.529-1.943-0.945-1.885-3.003-2.827-6.182-2.827" fill="#006bcc"/></g></g></g></svg>
